# xmcd
#
# Track frame offsets: 
#        150
#        19119
#        34502
#        51884
#        70945
#        88870
#        107003
#        128385
#        146290
#
# Disc length: 2200 seconds
#
# Revision: 0
# Processed by: cddbd v1.5.2PL0 Copyright (c) Steve Scherf et al.
# Submitted via: ExactAudioCopy v1.0b1
#
DISCID=6d089609
DTITLE=Fredi ja Stefu - Ne Sanoo
DYEAR=2011
DGENRE=Hip-Hop
TTITLE0=Ota kii jos saat
TTITLE1=Paras p‰iv‰
TTITLE2=Addiktoivaa
TTITLE3=M‰ en muutu
TTITLE4=Lasisein‰
TTITLE5=Hukassa
TTITLE6=T‰n‰‰n
TTITLE7=Ne sanoo (feat. Utopia)
TTITLE8=Joku p‰iv‰ viel
EXTD=
EXTT0=
EXTT1=
EXTT2=
EXTT3=
EXTT4=
EXTT5=
EXTT6=
EXTT7=
EXTT8=
PLAYORDER=
